<?xml version="1.0" encoding="UTF-8" standalone="no"?>
<svg width="100px" height="100px" viewBox="0 0 100 100" version="1.1" xmlns="http://www.w3.org/2000/svg" xmlns:xlink="http://www.w3.org/1999/xlink" xmlns:sketch="http://www.bohemiancoding.com/sketch/ns">
    <!-- Generator: Sketch 3.1.1 (8761) - http://www.bohemiancoding.com/sketch -->
    <title>autoassign</title>
    <desc>Created with Sketch.</desc>
    <defs></defs>
    <g id="Page-1" stroke="none" stroke-width="1" fill="none" fill-rule="evenodd" sketch:type="MSPage">
        <circle id="Oval-1" fill="#7B8DB4" sketch:type="MSShapeGroup" cx="50" cy="50" r="50"></circle>
        <g id="People" sketch:type="MSLayerGroup" transform="translate(14.000000, 28.000000)" fill="#FFFFFF">
            <path d="M69.536512,27.7767495 C67.4646379,26.4355825 65.050648,25.7201538 62.7164852,24.9542473 C62.1534011,24.7618679 61.5812827,24.5521571 61.0667021,24.253767 C60.6072894,23.9875845 60.4348245,23.4416431 60.328117,22.9621391 C60.2810205,22.7085219 60.2521406,22.448261 60.2371823,22.1922608 C61.9297669,19.9343312 63.0525288,16.2493717 63.0525288,13.2278464 C63.0525288,8.51238651 60.3203416,7.19829996 56.950575,7.19829996 C53.5801418,7.19829996 50.848547,8.51043672 50.848547,13.2258966 C50.848547,16.3555269 52.0522467,20.1945921 53.8467996,22.4247913 C53.8304344,22.6008502 53.8089596,22.776909 53.7764511,22.9521735 C53.6695214,23.4316053 53.4972787,23.9673644 53.0381623,24.2334747 C52.5229892,24.5319371 51.9509449,24.7213556 51.3877867,24.9137349 C49.0536239,25.6795693 46.639708,26.3549189 44.5683523,27.6960859 C43.4909837,28.3879005 42.7612848,29.6573585 42.3588174,30.8358985 C41.9443537,32.059067 41.7748509,33.5740542 41.8003985,34.8017 L57.0518027,34.8017 L72.3043918,34.8017 C72.3301616,33.5741264 72.1602885,32.0591392 71.746121,30.8358985 C71.3433574,29.6573585 70.6132882,28.468564 69.536512,27.7767495 Z" id="Right" sketch:type="MSShapeGroup"></path>
            <path d="M27.4316855,27.7767495 C25.3598114,26.4355825 22.9458216,25.7201538 20.6116587,24.9542473 C20.0485746,24.7618679 19.4764562,24.5521571 18.9618756,24.253767 C18.5024629,23.9875845 18.329998,23.4416431 18.2232905,22.9621391 C18.176194,22.7085219 18.1473141,22.448261 18.1323558,22.1922608 C19.8249404,19.9343312 20.9477023,16.2493717 20.9477023,13.2278464 C20.9477023,8.51238651 18.2155151,7.19829996 14.8457485,7.19829996 C11.4753153,7.19829996 8.74372055,8.51043672 8.74372055,13.2258966 C8.74372055,16.3555269 9.94742022,20.1945921 11.7419731,22.4247913 C11.7256079,22.6008502 11.7041331,22.776909 11.6716247,22.9521735 C11.5646949,23.4316053 11.3924522,23.9673644 10.9333358,24.2334747 C10.4181627,24.5319371 9.8461184,24.7213556 9.28296023,24.9137349 C6.94879738,25.6795693 4.53488155,26.3549189 2.46352584,27.6960859 C1.38615725,28.3879005 0.656458295,29.6573585 0.253990889,30.8358985 C-0.160472786,32.059067 -0.329975618,33.5740542 -0.304428009,34.8017 L14.9469762,34.8017 L30.1995653,34.8017 C30.2253351,33.5741264 30.055462,32.0591392 29.6412945,30.8358985 C29.2385309,29.6573585 28.5084617,28.468564 27.4316855,27.7767495 Z" id="Left" sketch:type="MSShapeGroup"></path>
            <path d="M53.1861347,28.329158 C50.3339058,26.4828512 47.010706,25.497962 43.7973993,24.4435829 C43.0222341,24.1787454 42.234632,23.8900487 41.5262386,23.4792723 C40.8937918,23.1128343 40.6563694,22.3612685 40.5094713,21.7011631 C40.4446364,21.3520231 40.4048791,20.993737 40.3842868,20.6413162 C42.71437,17.5329556 44.2600111,12.4600855 44.2600111,8.30052689 C44.2600111,1.80902674 40.4987675,0 35.8598051,0 C31.2199253,0 27.4594972,1.80634258 27.4594972,8.29784273 C27.4594972,12.6062233 29.1165607,17.8912417 31.5870177,20.9614276 C31.5644885,21.2037976 31.5349254,21.4461676 31.490173,21.6874441 C31.3429691,22.34745 31.1058525,23.0849985 30.4738135,23.4513371 C29.7646046,23.8622129 28.9771044,24.1229745 28.2018372,24.3878119 C24.9885306,25.4420917 21.6654327,26.3718063 18.8139174,28.2181131 C17.3307665,29.1704941 16.3262323,30.9180833 15.7721788,32.540511 C15.2016106,34.2243762 14.9682659,36.3099712 15.0034358,38 L35.9991595,38 L56.9965143,38 C57.03199,36.3100706 56.7981356,34.2244756 56.2279753,32.540511 C55.673514,30.9180833 54.66847,29.2815389 53.1861347,28.329158 Z" id="Main" stroke="#7B8DB4" stroke-width="2" sketch:type="MSShapeGroup"></path>
        </g>
    </g>
</svg>